<svg version="1.1" preserveAspectRatio="none" xmlns="http://www.w3.org/2000/svg" width="500" height="500" viewBox="0 0 500 500"><rect width="100%" height="100%" fill="#121212" fill-opacity="1"/><svg viewBox="635.491 889.9696 442.7358 406.8174" width="333" height="305.98427820835815" x="83.5px" y="97.0079px" xmlns="http://www.w3.org/2000/svg" xmlns:xlink="http://www.w3.org/1999/xlink" preserveAspectRatio="none"><defs></defs><style>.companyName {fill:#E3E3E3;fill-opacity:1;}.icon1 {fill:#F1EC40;fill-opacity:1;}.icon2 {fill:#555555;fill-opacity:1;}.icon3 {fill:#AAAAAA;fill-opacity:1;}.icon3-str {stroke:#AAAAAA;stroke-opacity:1;}.text {fill:#E3E3E3;fill-opacity:1;}</style><g opacity="1" transform="rotate(0 635.491 1270.387)">
<svg width="442.7358" height="26.4" x="635.491" y="1270.387" version="1.1" preserveAspectRatio="none" viewBox="0 -28 474.92 28.32">
  <g transform="matrix(1 0 0 1 0 0)" class="text"><path id="id-6izo4zJp19" d="M34.56-26.48L34.56-23.60L25.32-23.60L25.32 0L22.32 0L22.32-23.60L13.08-23.60L13.08-26.48L34.56-26.48Z M41.72-28L44.72-28L44.72-16.88Q45.80-18.32 47.36-19.32Q48.92-20.32 50.92-20.32Q52.92-20.32 54.36-19.76Q55.80-19.20 56.88-18.08L56.88-18.08Q59.36-15.64 59.36-11.64L59.36-11.64L59.36 0L56.36 0L56.36-11.56Q56.36-14.32 54.80-15.96Q53.24-17.60 50.76-17.60L50.76-17.60Q48.24-17.60 46.48-15.92L46.48-15.92Q44.72-14.20 44.72-11.52L44.72-11.52L44.72 0L41.72 0L41.72-28Z M77.28-2.40L77.28-2.40Q81.32-2.40 83.08-5.76L83.08-5.76L86.36-5.76Q85.32-3.04 83.06-1.36Q80.80 0.32 77.24 0.32L77.24 0.32Q72.72 0.32 69.88-2.68L69.88-2.68Q67.12-5.60 67.12-10L67.12-10Q67.12-14.44 69.76-17.32L69.76-17.32Q72.56-20.32 77.04-20.32L77.04-20.32Q81.52-20.32 84.32-17.32L84.32-17.32Q86.96-14.44 86.96-10L86.96-10L86.96-8.80L70.20-8.80Q70.52-6.04 72.40-4.24L72.40-4.24Q74.32-2.40 77.28-2.40ZM77.04-17.60L77.04-17.60Q74.28-17.60 72.40-15.88L72.40-15.88Q70.64-14.24 70.24-11.60L70.24-11.60L83.84-11.60Q83.44-14.24 81.68-15.88L81.68-15.88Q79.80-17.60 77.04-17.60Z M116.40-2.40L116.40-2.40Q118.32-2.40 119.80-3.48Q121.28-4.56 121.96-6.28L121.96-6.28L125.20-6.28Q124.28-3.32 121.84-1.52L121.84-1.52Q119.28 0.32 115.76 0.32L115.76 0.32Q111.36 0.32 108.60-2.68L108.60-2.68Q105.92-5.60 105.92-10L105.92-10Q105.92-14.40 108.60-17.32L108.60-17.32Q111.36-20.32 115.76-20.32L115.76-20.32Q119.28-20.32 121.84-18.48L121.84-18.48Q124.28-16.68 125.20-13.72L125.20-13.72L121.96-13.72Q121.28-15.44 119.80-16.52Q118.32-17.60 116.40-17.60Q114.48-17.60 113.14-17Q111.80-16.40 110.88-15.36L110.88-15.36Q108.92-13.20 108.92-10L108.92-10Q108.92-6.80 110.88-4.64L110.88-4.64Q112.88-2.40 116.40-2.40Z M141.60-20.32L141.60-20.32Q146.08-20.32 148.88-17.32L148.88-17.32Q151.52-14.44 151.52-10L151.52-10Q151.52-5.56 148.88-2.68L148.88-2.68Q146.08 0.32 141.60 0.32L141.60 0.32Q137.12 0.32 134.32-2.68L134.32-2.68Q131.68-5.56 131.68-10L131.68-10Q131.68-14.44 134.32-17.32L134.32-17.32Q137.12-20.32 141.60-20.32ZM141.60-2.40L141.60-2.40Q144.84-2.40 146.72-4.64L146.72-4.64Q148.52-6.76 148.52-10L148.52-10Q148.52-13.24 146.72-15.36L146.72-15.36Q144.84-17.60 141.60-17.60L141.60-17.60Q138.36-17.60 136.48-15.36L136.48-15.36Q134.68-13.24 134.68-10L134.68-10Q134.68-6.76 136.48-4.64L136.48-4.64Q138.36-2.40 141.60-2.40Z M175.08 0L175.08-3.20Q172.68 0.32 167.92 0.32L167.92 0.32Q163.60 0.32 160.88-2.68L160.88-2.68Q158.24-5.64 158.24-10L158.24-10Q158.24-14.36 160.88-17.32L160.88-17.32Q163.60-20.32 168.12-20.32Q172.64-20.32 175.08-16.76L175.08-16.76L175.08-28L178.08-28L178.08 0L175.08 0ZM168.32-2.40L168.32-2.40Q171.56-2.40 173.44-4.64L173.44-4.64Q175.24-6.76 175.24-10L175.24-10Q175.24-13.24 173.44-15.36L173.44-15.36Q171.56-17.60 168.32-17.60L168.32-17.60Q165.12-17.60 163.12-15.36L163.12-15.36Q161.24-13.24 161.24-10L161.24-10Q161.24-6.76 163.12-4.64L163.12-4.64Q165.12-2.40 168.32-2.40Z M196.20-2.40L196.20-2.40Q200.24-2.40 202-5.76L202-5.76L205.28-5.76Q204.24-3.04 201.98-1.36Q199.72 0.32 196.16 0.32L196.16 0.32Q191.64 0.32 188.80-2.68L188.80-2.68Q186.04-5.60 186.04-10L186.04-10Q186.04-14.44 188.68-17.32L188.68-17.32Q191.48-20.32 195.96-20.32L195.96-20.32Q200.44-20.32 203.24-17.32L203.24-17.32Q205.88-14.44 205.88-10L205.88-10L205.88-8.80L189.12-8.80Q189.44-6.04 191.32-4.24L191.32-4.24Q193.24-2.40 196.20-2.40ZM195.96-17.60L195.96-17.60Q193.20-17.60 191.32-15.88L191.32-15.88Q189.56-14.24 189.16-11.60L189.16-11.60L202.76-11.60Q202.36-14.24 200.60-15.88L200.60-15.88Q198.72-17.60 195.96-17.60Z M235.32-2.40L235.32-2.40Q237.24-2.40 238.72-3.48Q240.20-4.56 240.88-6.28L240.88-6.28L244.12-6.28Q243.20-3.32 240.76-1.52L240.76-1.52Q238.20 0.32 234.68 0.32L234.68 0.32Q230.28 0.32 227.52-2.68L227.52-2.68Q224.84-5.60 224.84-10L224.84-10Q224.84-14.40 227.52-17.32L227.52-17.32Q230.28-20.32 234.68-20.32L234.68-20.32Q238.20-20.32 240.76-18.48L240.76-18.48Q243.20-16.68 244.12-13.72L244.12-13.72L240.88-13.72Q240.20-15.44 238.72-16.52Q237.24-17.60 235.32-17.60Q233.40-17.60 232.06-17Q230.72-16.40 229.80-15.36L229.80-15.36Q227.84-13.20 227.84-10L227.84-10Q227.84-6.80 229.80-4.64L229.80-4.64Q231.80-2.40 235.32-2.40Z M260.52-20.32L260.52-20.32Q265-20.32 267.80-17.32L267.80-17.32Q270.44-14.44 270.44-10L270.44-10Q270.44-5.56 267.80-2.68L267.80-2.68Q265 0.32 260.52 0.32L260.52 0.32Q256.04 0.32 253.24-2.68L253.24-2.68Q250.60-5.56 250.60-10L250.60-10Q250.60-14.44 253.24-17.32L253.24-17.32Q256.04-20.32 260.52-20.32ZM260.52-2.40L260.52-2.40Q263.76-2.40 265.64-4.64L265.64-4.64Q267.44-6.76 267.44-10L267.44-10Q267.44-13.24 265.64-15.36L265.64-15.36Q263.76-17.60 260.52-17.60L260.52-17.60Q257.28-17.60 255.40-15.36L255.40-15.36Q253.60-13.24 253.60-10L253.60-10Q253.60-6.76 255.40-4.64L255.40-4.64Q257.28-2.40 260.52-2.40Z M281.40-20L281.40-16.96Q283.40-20.32 287.48-20.32L287.48-20.32Q289.48-20.32 291.18-19.26Q292.88-18.20 293.84-16.28L293.84-16.28Q295.20-18.80 298.08-19.88L298.08-19.88Q299.24-20.32 300.70-20.32Q302.16-20.32 303.50-19.74Q304.84-19.16 305.88-18.08L305.88-18.08Q308.12-15.68 308.12-12.08L308.12-12.08L308.12 0L305.12 0L305.12-12Q305.12-14.48 303.72-16.08L303.72-16.08Q302.32-17.60 300.16-17.60L300.16-17.60Q297.88-17.60 296.36-16.12L296.36-16.12Q294.76-14.60 294.76-11.96L294.76-11.96L294.76 0L291.76 0L291.76-12Q291.76-14.48 290.36-16.08L290.36-16.08Q288.96-17.60 286.80-17.60L286.80-17.60Q284.52-17.60 283-16.12L283-16.12Q281.40-14.60 281.40-11.96L281.40-11.96L281.40 0L278.40 0L278.40-20L281.40-20Z M320.12-20L320.12-16.96Q322.12-20.32 326.20-20.32L326.20-20.32Q328.20-20.32 329.90-19.26Q331.60-18.20 332.56-16.28L332.56-16.28Q333.92-18.80 336.80-19.88L336.80-19.88Q337.96-20.32 339.42-20.32Q340.88-20.32 342.22-19.74Q343.56-19.16 344.60-18.08L344.60-18.08Q346.84-15.68 346.84-12.08L346.84-12.08L346.84 0L343.84 0L343.84-12Q343.84-14.48 342.44-16.08L342.44-16.08Q341.04-17.60 338.88-17.60L338.88-17.60Q336.60-17.60 335.08-16.12L335.08-16.12Q333.48-14.60 333.48-11.96L333.48-11.96L333.48 0L330.48 0L330.48-12Q330.48-14.48 329.08-16.08L329.08-16.08Q327.68-17.60 325.52-17.60L325.52-17.60Q323.24-17.60 321.72-16.12L321.72-16.12Q320.12-14.60 320.12-11.96L320.12-11.96L320.12 0L317.12 0L317.12-20L320.12-20Z M371.44 0L371.44-3.20Q369.04 0.32 364.28 0.32L364.28 0.32Q359.96 0.32 357.24-2.68L357.24-2.68Q354.60-5.64 354.60-10L354.60-10Q354.60-14.36 357.24-17.32L357.24-17.32Q359.96-20.32 364.48-20.32Q369-20.32 371.44-16.76L371.44-16.76L371.44-20L374.44-20L374.44 0L371.44 0ZM364.68-2.40L364.68-2.40Q367.92-2.40 369.80-4.64L369.80-4.64Q371.60-6.76 371.60-10L371.60-10Q371.60-13.24 369.80-15.36L369.80-15.36Q367.92-17.60 364.68-17.60L364.68-17.60Q361.48-17.60 359.48-15.36L359.48-15.36Q357.60-13.24 357.60-10L357.60-10Q357.60-6.76 359.48-4.64L359.48-4.64Q361.48-2.40 364.68-2.40Z M383.64-20L386.64-20L386.64-16.88Q387.72-18.32 389.28-19.32Q390.84-20.32 392.84-20.32Q394.84-20.32 396.28-19.76Q397.72-19.20 398.80-18.08L398.80-18.08Q401.28-15.64 401.28-11.64L401.28-11.64L401.28 0L398.28 0L398.28-11.56Q398.28-14.32 396.72-15.96Q395.16-17.60 392.68-17.60L392.68-17.60Q390.16-17.60 388.40-15.92L388.40-15.92Q386.64-14.20 386.64-11.52L386.64-11.52L386.64 0L383.64 0L383.64-20Z M425.88 0L425.88-3.20Q423.48 0.32 418.72 0.32L418.72 0.32Q414.40 0.32 411.68-2.68L411.68-2.68Q409.04-5.64 409.04-10L409.04-10Q409.04-14.36 411.68-17.32L411.68-17.32Q414.40-20.32 418.92-20.32Q423.44-20.32 425.88-16.76L425.88-16.76L425.88-28L428.88-28L428.88 0L425.88 0ZM419.12-2.40L419.12-2.40Q422.36-2.40 424.24-4.64L424.24-4.64Q426.04-6.76 426.04-10L426.04-10Q426.04-13.24 424.24-15.36L424.24-15.36Q422.36-17.60 419.12-17.60L419.12-17.60Q415.92-17.60 413.92-15.36L413.92-15.36Q412.04-13.24 412.04-10L412.04-10Q412.04-6.76 413.92-4.64L413.92-4.64Q415.92-2.40 419.12-2.40Z M447-2.40L447-2.40Q451.04-2.40 452.80-5.76L452.80-5.76L456.08-5.76Q455.04-3.04 452.78-1.36Q450.52 0.32 446.96 0.32L446.96 0.32Q442.44 0.32 439.60-2.68L439.60-2.68Q436.84-5.60 436.84-10L436.84-10Q436.84-14.44 439.48-17.32L439.48-17.32Q442.28-20.32 446.76-20.32L446.76-20.32Q451.24-20.32 454.04-17.32L454.04-17.32Q456.68-14.44 456.68-10L456.68-10L456.68-8.80L439.92-8.80Q440.24-6.04 442.12-4.24L442.12-4.24Q444.04-2.40 447-2.40ZM446.76-17.60L446.76-17.60Q444-17.60 442.12-15.88L442.12-15.88Q440.36-14.24 439.96-11.60L439.96-11.60L453.56-11.60Q453.16-14.24 451.40-15.88L451.40-15.88Q449.52-17.60 446.76-17.60Z M474.72-20.32L474.92-20.32L474.92-17.32L474.56-17.32Q471.32-17.32 469.28-14.72L469.28-14.72Q467.36-12.24 467.36-8.80L467.36-8.80L467.36 0L464.36 0L464.36-20L467.36-20L467.36-15.08Q468.32-18.20 471.52-19.68L471.52-19.68Q472.84-20.32 474.72-20.32L474.72-20.32Z"/></g>
</svg>
</g><g opacity="1" transform="rotate(0 664.056 1124.387)">
<svg width="385.6057" height="120" x="664.056" y="1124.387" version="1.1" preserveAspectRatio="none" viewBox="2.5781 -28.0078 89.99999999999999 28.0078">
  <g transform="matrix(1 0 0 1 0 0)" class="companyName"><path id="id-D6z1nYkh3" d="M30.59-14.00L30.59-2.56Q30.59-2.01 30.39-1.54Q30.20-1.07 29.85-0.73Q29.51-0.39 29.04-0.20Q28.57 0 28.03 0L28.03 0L9.71 0Q9.00 0 8.19-0.17Q7.38-0.33 6.59-0.68Q5.80-1.04 5.08-1.59Q4.36-2.15 3.80-2.94Q3.24-3.73 2.91-4.78Q2.58-5.82 2.58-7.13L2.58-7.13L2.58-20.88Q2.58-21.58 2.74-22.39Q2.91-23.20 3.26-23.99Q3.61-24.79 4.18-25.51Q4.75-26.23 5.54-26.79Q6.33-27.34 7.36-27.68Q8.40-28.01 9.71-28.01L9.71-28.01L30.35-28.01L30.35-22.93L9.71-22.93Q8.71-22.93 8.18-22.40Q7.66-21.88 7.66-20.84L7.66-20.84L7.66-7.13Q7.66-6.15 8.19-5.62Q8.73-5.08 9.71-5.08L9.71-5.08L25.51-5.08L25.51-11.45L11.99-11.45L11.99-16.56L28.03-16.56Q28.57-16.56 29.04-16.36Q29.51-16.15 29.85-15.80Q30.20-15.45 30.39-14.99Q30.59-14.53 30.59-14.00L30.59-14.00Z M60.96-5.08L60.96 0L42.64 0Q41.93 0 41.12-0.17Q40.31-0.33 39.52-0.68Q38.73-1.04 38.01-1.59Q37.29-2.15 36.73-2.94Q36.17-3.73 35.84-4.78Q35.51-5.82 35.51-7.13L35.51-7.13L35.51-20.88Q35.51-21.58 35.67-22.39Q35.84-23.20 36.19-23.99Q36.54-24.79 37.11-25.51Q37.68-26.23 38.47-26.79Q39.26-27.34 40.29-27.68Q41.33-28.01 42.64-28.01L42.64-28.01L60.96-28.01L60.96-22.93L42.64-22.93Q41.64-22.93 41.11-22.40Q40.59-21.88 40.59-20.84L40.59-20.84L40.59-7.13Q40.59-6.15 41.12-5.62Q41.66-5.08 42.64-5.08L42.64-5.08L60.96-5.08Z M92.58-8.24L92.58-8.24Q92.58-6.74 92.20-5.54Q91.82-4.34 91.19-3.42Q90.57-2.50 89.73-1.86Q88.89-1.21 87.99-0.80Q87.09-0.39 86.16-0.20Q85.23 0 84.41 0L84.41 0L64.82 0L64.82-5.08L84.41-5.08Q85.88-5.08 86.69-5.94Q87.50-6.80 87.50-8.24L87.50-8.24Q87.50-8.95 87.29-9.53Q87.07-10.12 86.67-10.55Q86.27-10.98 85.69-11.21Q85.12-11.45 84.41-11.45L84.41-11.45L72.73-11.45Q71.50-11.45 70.08-11.88Q68.65-12.32 67.43-13.30Q66.21-14.28 65.40-15.86Q64.59-17.44 64.59-19.73L64.59-19.73Q64.59-22.01 65.40-23.58Q66.21-25.16 67.43-26.14Q68.65-27.13 70.08-27.57Q71.50-28.01 72.73-28.01L72.73-28.01L90.02-28.01L90.02-22.93L72.73-22.93Q71.29-22.93 70.48-22.05Q69.67-21.17 69.67-19.73L69.67-19.73Q69.67-18.26 70.48-17.41Q71.29-16.56 72.73-16.56L72.73-16.56L84.41-16.56L84.45-16.56Q85.27-16.54 86.19-16.34Q87.11-16.13 88.02-15.70Q88.93-15.27 89.75-14.62Q90.57-13.96 91.20-13.05Q91.84-12.13 92.21-10.94Q92.58-9.75 92.58-8.24Z"/></g>
</svg>
</g><g opacity="1" transform="rotate(0 760.4574 889.9696)">
<svg width="192.8029" height="204.4174" x="760.4574" y="889.9696" version="1.1" preserveAspectRatio="none" viewBox="8.5 6 83 88">
  <g transform="matrix(1 0 0 1 0 0)" class="icon1"><g><path d="M90,41H69V25c0-0.67-0.444-1.258-1.088-1.442L51.5,18.869V14h6c0.828,0,1.5-0.671,1.5-1.5v-5C59,6.671,58.328,6,57.5,6H50   c-0.829,0-1.5,0.671-1.5,1.5v5v6.369l-16.412,4.689C31.444,23.742,31,24.33,31,25v16H10c-0.829,0-1.5,0.671-1.5,1.5v40   c0,0.828,0.671,1.5,1.5,1.5h30h20h30c0.828,0,1.5-0.672,1.5-1.5v-40C91.5,41.671,90.828,41,90,41z M56,11h-4.5V9H56V11z M58.5,81   H51V64h7.5V81z M49,81h-7.5V64H49V81z M88.5,81h-27V62.5c0-0.828-0.672-1.5-1.5-1.5H40c-0.829,0-1.5,0.672-1.5,1.5V81h-27V44h21   c0.829,0,1.5-0.671,1.5-1.5V26.131l16-4.571l16,4.571V42.5c0,0.829,0.672,1.5,1.5,1.5h21V81z"></path><path d="M90,86H10c-0.829,0-1.5,0.672-1.5,1.5S9.171,89,10,89h80c0.828,0,1.5-0.672,1.5-1.5S90.828,86,90,86z"></path><path d="M90,91H10c-0.829,0-1.5,0.672-1.5,1.5S9.171,94,10,94h80c0.828,0,1.5-0.672,1.5-1.5S90.828,91,90,91z"></path><path d="M17.5,66.5c-0.552,0-1,0.447-1,1V75c0,0.553,0.448,1,1,1s1-0.447,1-1v-7.5C18.5,66.947,18.052,66.5,17.5,66.5z"></path><path d="M22.5,66.5c-0.552,0-1,0.447-1,1V75c0,0.553,0.448,1,1,1s1-0.447,1-1v-7.5C23.5,66.947,23.052,66.5,22.5,66.5z"></path><path d="M27.5,66.5c-0.552,0-1,0.447-1,1V75c0,0.553,0.448,1,1,1s1-0.447,1-1v-7.5C28.5,66.947,28.052,66.5,27.5,66.5z"></path><path d="M32.5,66.5c-0.552,0-1,0.447-1,1V75c0,0.553,0.448,1,1,1s1-0.447,1-1v-7.5C33.5,66.947,33.052,66.5,32.5,66.5z"></path><path d="M67.5,66.5c-0.553,0-1,0.447-1,1V75c0,0.553,0.447,1,1,1s1-0.447,1-1v-7.5C68.5,66.947,68.053,66.5,67.5,66.5z"></path><path d="M72.5,76c0.553,0,1-0.447,1-1v-7.5c0-0.553-0.447-1-1-1s-1,0.447-1,1V75C71.5,75.553,71.947,76,72.5,76z"></path><path d="M77.5,76c0.553,0,1-0.447,1-1v-7.5c0-0.553-0.447-1-1-1s-1,0.447-1,1V75C76.5,75.553,76.947,76,77.5,76z"></path><path d="M82.5,76c0.553,0,1-0.447,1-1v-7.5c0-0.553-0.447-1-1-1s-1,0.447-1,1V75C81.5,75.553,81.947,76,82.5,76z"></path><path d="M66.5,52.5V60c0,0.553,0.447,1,1,1s1-0.447,1-1v-7.5c0-0.553-0.447-1-1-1S66.5,51.947,66.5,52.5z"></path><path d="M72.5,61c0.553,0,1-0.447,1-1v-7.5c0-0.553-0.447-1-1-1s-1,0.447-1,1V60C71.5,60.553,71.947,61,72.5,61z"></path><path d="M77.5,61c0.553,0,1-0.447,1-1v-7.5c0-0.553-0.447-1-1-1s-1,0.447-1,1V60C76.5,60.553,76.947,61,77.5,61z"></path><path d="M82.5,61c0.553,0,1-0.447,1-1v-7.5c0-0.553-0.447-1-1-1s-1,0.447-1,1V60C81.5,60.553,81.947,61,82.5,61z"></path><path d="M17.5,51.5c-0.552,0-1,0.447-1,1V60c0,0.553,0.448,1,1,1s1-0.447,1-1v-7.5C18.5,51.947,18.052,51.5,17.5,51.5z"></path><path d="M22.5,51.5c-0.552,0-1,0.447-1,1V60c0,0.553,0.448,1,1,1s1-0.447,1-1v-7.5C23.5,51.947,23.052,51.5,22.5,51.5z"></path><path d="M27.5,51.5c-0.552,0-1,0.447-1,1V60c0,0.553,0.448,1,1,1s1-0.447,1-1v-7.5C28.5,51.947,28.052,51.5,27.5,51.5z"></path><path d="M32.5,51.5c-0.552,0-1,0.447-1,1V60c0,0.553,0.448,1,1,1s1-0.447,1-1v-7.5C33.5,51.947,33.052,51.5,32.5,51.5z"></path><path d="M50,29c-6.065,0-11,4.935-11,11s4.935,11,11,11s11-4.935,11-11S56.065,29,50,29z M50,49c-4.962,0-9-4.038-9-9s4.038-9,9-9   c4.963,0,9,4.038,9,9S54.963,49,50,49z"></path><path d="M50,31.5c-0.552,0-1,0.448-1,1V39h-4c-0.552,0-1,0.448-1,1s0.448,1,1,1h5c0.552,0,1-0.448,1-1v-7.5   C51,31.948,50.552,31.5,50,31.5z"></path></g></g>
</svg>
</g></svg></svg>