<svg version="1.1" preserveAspectRatio="none" xmlns="http://www.w3.org/2000/svg" width="500" height="500" viewBox="0 0 500 500"><rect width="100%" height="100%" fill="#262626" fill-opacity="1"/><svg viewBox="86.7905 584 586.0233 271.2" width="333" height="154.10581797686203" x="83.5px" y="172.9471px" xmlns="http://www.w3.org/2000/svg" xmlns:xlink="http://www.w3.org/1999/xlink" preserveAspectRatio="none"><defs></defs><style>.ag5fOcfGctfillColor {fill:#31413D;fill-opacity:0;}.background {fill:#262626;fill-opacity:1;}.companyName {fill:#EFE1DD;fill-opacity:1;}.icon3-str {stroke:#B29C96;stroke-opacity:1;}.shapeStroke-str {stroke:#1E1E1E;stroke-opacity:1;}.text-str {stroke:#EFE1DD;stroke-opacity:1;}</style><g opacity="1" transform="rotate(0 86.7905 584)">
<svg width="586.0233" height="271.2" x="86.7905" y="584" version="1.1" preserveAspectRatio="none" viewBox="0 0 586.0233 271.2">
  <defs><rect x="1.3559999999999999" y="1.3559999999999999" width="583.3113" height="268.488" rx="0px" ry="0px" id="id-g5fOcfGct1707486853250"></rect></defs><use class="ag5fOcfGctfillColor text-str" style="stroke-width:2.7119999999999997;" xlink:href="#id-g5fOcfGct1707486853250"></use>
</svg>
</g><g opacity="1" transform="rotate(0 96.7905 594)">
<svg width="566.0233" height="251.2" x="96.7905" y="594" version="1.1" preserveAspectRatio="none" viewBox="0 0 566.0233 251.2">
  <defs><rect x="0" y="0" width="566.0233" height="251.2" rx="0%" ry="0%" id="id-UPl23ini1707486853251"></rect></defs><use class="companyName shapeStroke-str" style="stroke-width:0;" xlink:href="#id-UPl23ini1707486853251"></use>
</svg>
</g><g opacity="1" transform="rotate(0 126.7905 778)">
<svg width="506.0233" height="37.2" x="126.7905" y="778" version="1.1" preserveAspectRatio="none" viewBox="0 -31 427.12 31.400000000000002">
  <g transform="matrix(1 0 0 1 0 0)" class="background"><path id="id-6izo4zJp19" d="M16.28-28.92L35.48-28.92L35.48-25.20L27.72-25.20L27.72 0L23.84 0L23.84-25.20L16.28-25.20L16.28-28.92Z M52.64-17.20Q54.96-17.20 56.48-15.82Q58-14.44 58.04-12.24L58.04-12.24L58.04 0L54.28 0L54.28-10.96Q54.20-12.36 53.44-13.16Q52.68-13.96 51.16-14L51.16-14Q49.72-14 48.56-13.20Q47.40-12.40 46.74-10.96Q46.08-9.52 46.08-7.76L46.08-7.76L46.08 0L42.36 0L42.36-31L46.00-31L46.00-13.56Q46.92-15.20 48.66-16.20Q50.40-17.20 52.64-17.20L52.64-17.20Z M73.84-2.80Q75.92-2.80 77.88-4.24L77.88-4.24L79.60-1.48Q78.28-0.60 76.74-0.10Q75.20 0.40 73.76 0.40L73.76 0.40Q71.00 0.40 68.94-0.74Q66.88-1.88 65.76-3.88Q64.64-5.88 64.64-8.40L64.64-8.40Q64.64-10.84 65.86-12.86Q67.08-14.88 69.20-16.06Q71.32-17.24 73.84-17.24L73.84-17.24Q77.08-17.24 79.26-15.34Q81.44-13.44 82.24-10.04L82.24-10.04L69.12-5.44Q69.84-4.20 71.06-3.50Q72.28-2.80 73.84-2.80L73.84-2.80ZM73.56-14.28Q71.28-14.28 69.80-12.68Q68.32-11.08 68.32-8.60L68.32-8.60Q68.32-8 68.36-7.68L68.36-7.68L78.00-11.24Q77.40-12.60 76.30-13.44Q75.20-14.28 73.56-14.28L73.56-14.28Z M116.16-1.56Q115.04-0.64 113.50-0.12Q111.96 0.40 110.36 0.40L110.36 0.40Q107.68 0.40 105.62-0.68Q103.56-1.76 102.42-3.74Q101.28-5.72 101.28-8.32L101.28-8.32Q101.28-10.88 102.48-12.86Q103.68-14.84 105.68-15.92Q107.68-17 110-17L110-17Q113.80-17 116.28-14.92L116.28-14.92L114.40-12.48Q113.60-13.08 112.56-13.50Q111.52-13.92 110.32-13.92L110.32-13.92Q108.84-13.92 107.62-13.18Q106.40-12.44 105.70-11.16Q105-9.88 105-8.32L105-8.32Q105-6.76 105.74-5.48Q106.48-4.20 107.76-3.44Q109.04-2.68 110.68-2.68L110.68-2.68Q112.72-2.68 114.24-3.88L114.24-3.88L116.16-1.56Z M121.12-8.44Q121.12-10.88 122.30-12.90Q123.48-14.92 125.58-16.08Q127.68-17.24 130.32-17.24L130.32-17.24Q132.96-17.24 135.02-16.08Q137.08-14.92 138.22-12.92Q139.36-10.92 139.36-8.44L139.36-8.44Q139.36-5.96 138.22-3.94Q137.08-1.92 135-0.76Q132.92 0.40 130.24 0.40L130.24 0.40Q127.64 0.40 125.56-0.70Q123.48-1.80 122.30-3.80Q121.12-5.80 121.12-8.44L121.12-8.44ZM124.88-8.40Q124.88-6.84 125.58-5.52Q126.28-4.20 127.50-3.44Q128.72-2.68 130.20-2.68L130.20-2.68Q132.52-2.68 134.04-4.32Q135.56-5.96 135.56-8.40L135.56-8.40Q135.56-10.84 134.04-12.50Q132.52-14.16 130.20-14.16L130.20-14.16Q128.68-14.16 127.48-13.38Q126.28-12.60 125.58-11.28Q124.88-9.96 124.88-8.40L124.88-8.40Z M159.52-31L163.24-31L163.24 0L159.48 0L159.48-2.60Q158.28-1.20 156.54-0.40Q154.80 0.40 152.72 0.40L152.72 0.40Q150.40 0.40 148.52-0.72Q146.64-1.84 145.58-3.86Q144.52-5.88 144.52-8.52L144.52-8.52Q144.52-11.20 145.64-13.18Q146.76-15.16 148.72-16.20Q150.68-17.24 153.16-17.24L153.16-17.24Q155.04-17.24 156.78-16.46Q158.52-15.68 159.52-14.32L159.52-14.32L159.52-31ZM153.88-2.80Q156.04-2.80 157.54-3.96Q159.04-5.12 159.48-7.08L159.48-7.08L159.48-10.20Q159-12 157.44-13.14Q155.88-14.28 153.88-14.28L153.88-14.28Q152.36-14.28 151.08-13.54Q149.80-12.80 149.04-11.50Q148.28-10.20 148.28-8.56L148.28-8.56Q148.28-6.96 149.04-5.64Q149.80-4.32 151.08-3.56Q152.36-2.80 153.88-2.80L153.88-2.80Z M179.04-2.80Q181.12-2.80 183.08-4.24L183.08-4.24L184.80-1.48Q183.48-0.60 181.94-0.10Q180.40 0.40 178.96 0.40L178.96 0.40Q176.20 0.40 174.14-0.74Q172.08-1.88 170.96-3.88Q169.84-5.88 169.84-8.40L169.84-8.40Q169.84-10.84 171.06-12.86Q172.28-14.88 174.40-16.06Q176.52-17.24 179.04-17.24L179.04-17.24Q182.28-17.24 184.46-15.34Q186.64-13.44 187.44-10.04L187.44-10.04L174.32-5.44Q175.04-4.20 176.26-3.50Q177.48-2.80 179.04-2.80L179.04-2.80ZM178.76-14.28Q176.48-14.28 175-12.68Q173.52-11.08 173.52-8.60L173.52-8.60Q173.52-8 173.56-7.68L173.56-7.68L183.20-11.24Q182.60-12.60 181.50-13.44Q180.40-14.28 178.76-14.28L178.76-14.28Z M221.36-1.56Q220.24-0.64 218.70-0.12Q217.16 0.40 215.56 0.40L215.56 0.40Q212.88 0.40 210.82-0.68Q208.76-1.76 207.62-3.74Q206.48-5.72 206.48-8.32L206.48-8.32Q206.48-10.88 207.68-12.86Q208.88-14.84 210.88-15.92Q212.88-17 215.20-17L215.20-17Q219.00-17 221.48-14.92L221.48-14.92L219.60-12.48Q218.80-13.08 217.76-13.50Q216.72-13.92 215.52-13.92L215.52-13.92Q214.04-13.92 212.82-13.18Q211.60-12.44 210.90-11.16Q210.20-9.88 210.20-8.32L210.20-8.32Q210.20-6.76 210.94-5.48Q211.68-4.20 212.96-3.44Q214.24-2.68 215.88-2.68L215.88-2.68Q217.92-2.68 219.44-3.88L219.44-3.88L221.36-1.56Z M226.32-8.44Q226.32-10.88 227.50-12.90Q228.68-14.92 230.78-16.08Q232.88-17.24 235.52-17.24L235.52-17.24Q238.16-17.24 240.22-16.08Q242.28-14.92 243.42-12.92Q244.56-10.92 244.56-8.44L244.56-8.44Q244.56-5.96 243.42-3.94Q242.28-1.92 240.20-0.76Q238.12 0.40 235.44 0.40L235.44 0.40Q232.84 0.40 230.76-0.70Q228.68-1.80 227.50-3.80Q226.32-5.80 226.32-8.44L226.32-8.44ZM230.08-8.40Q230.08-6.84 230.78-5.52Q231.48-4.20 232.70-3.44Q233.92-2.68 235.40-2.68L235.40-2.68Q237.72-2.68 239.24-4.32Q240.76-5.96 240.76-8.40L240.76-8.40Q240.76-10.84 239.24-12.50Q237.72-14.16 235.40-14.16L235.40-14.16Q233.88-14.16 232.68-13.38Q231.48-12.60 230.78-11.28Q230.08-9.96 230.08-8.40L230.08-8.40Z M272.40-17.24Q274.80-17.24 276.22-15.88Q277.64-14.52 277.72-12.28L277.72-12.28L277.72 0L274 0L274-10.92Q273.88-13.84 271.36-14L271.36-14Q269.92-14 268.78-13.14Q267.64-12.28 267-10.88Q266.36-9.48 266.32-7.88L266.32-7.88L266.32 0L262.56 0L262.56-10.92Q262.44-13.84 259.84-14L259.84-14Q258.44-14 257.30-13.14Q256.16-12.28 255.52-10.86Q254.88-9.44 254.88-7.84L254.88-7.84L254.88 0L251.16 0L251.16-16.56L254.52-16.56L254.80-13.44Q255.76-15.24 257.42-16.24Q259.08-17.24 261.20-17.24L261.20-17.24Q263.20-17.24 264.56-16.30Q265.92-15.36 266.32-13.72L266.32-13.72Q267.36-15.36 268.96-16.30Q270.56-17.24 272.40-17.24L272.40-17.24Z M307-17.24Q309.40-17.24 310.82-15.88Q312.24-14.52 312.32-12.28L312.32-12.28L312.32 0L308.60 0L308.60-10.92Q308.48-13.84 305.96-14L305.96-14Q304.52-14 303.38-13.14Q302.24-12.28 301.60-10.88Q300.96-9.48 300.92-7.88L300.92-7.88L300.92 0L297.16 0L297.16-10.92Q297.04-13.84 294.44-14L294.44-14Q293.04-14 291.90-13.14Q290.76-12.28 290.12-10.86Q289.48-9.44 289.48-7.84L289.48-7.84L289.48 0L285.76 0L285.76-16.56L289.12-16.56L289.40-13.44Q290.36-15.24 292.02-16.24Q293.68-17.24 295.80-17.24L295.80-17.24Q297.80-17.24 299.16-16.30Q300.52-15.36 300.92-13.72L300.92-13.72Q301.96-15.36 303.56-16.30Q305.16-17.24 307-17.24L307-17.24Z M333.92-16.56L337.36-16.56L337.36 0L333.64 0L333.64-2.72Q332.76-1.56 331.08-0.58Q329.40 0.40 327.28 0.40L327.28 0.40Q324.92 0.40 323.02-0.62Q321.12-1.64 320.02-3.60Q318.92-5.56 318.92-8.28L318.92-8.28Q318.92-11 320.06-13.02Q321.20-15.04 323.14-16.14Q325.08-17.24 327.44-17.24L327.44-17.24Q329.56-17.24 331.12-16.32Q332.68-15.40 333.64-13.92L333.64-13.92L333.92-16.56ZM328.28-2.68Q330.32-2.68 331.78-3.82Q333.24-4.96 333.64-6.92L333.64-6.92L333.64-10.20Q333.16-11.96 331.64-13.06Q330.12-14.16 328.16-14.16L328.16-14.16Q326.68-14.16 325.42-13.44Q324.16-12.72 323.42-11.42Q322.68-10.12 322.68-8.48L322.68-8.48Q322.68-6.88 323.44-5.56Q324.20-4.24 325.48-3.46Q326.76-2.68 328.28-2.68L328.28-2.68Z M355.72-17.20Q358.04-17.20 359.56-15.82Q361.08-14.44 361.12-12.24L361.12-12.24L361.12 0L357.36 0L357.36-10.96Q357.28-12.36 356.52-13.16Q355.76-13.96 354.24-14L354.24-14Q352.04-14 350.60-12.24Q349.16-10.48 349.16-7.76L349.16-7.76L349.16 0L345.44 0L345.44-16.56L348.80-16.56L349.04-13.36Q349.92-15.16 351.68-16.18Q353.44-17.20 355.72-17.20L355.72-17.20Z M382.72-31L386.44-31L386.44 0L382.68 0L382.68-2.60Q381.48-1.20 379.74-0.40Q378.00 0.40 375.92 0.40L375.92 0.40Q373.60 0.40 371.72-0.72Q369.84-1.84 368.78-3.86Q367.72-5.88 367.72-8.52L367.72-8.52Q367.72-11.20 368.84-13.18Q369.96-15.16 371.92-16.20Q373.88-17.24 376.36-17.24L376.36-17.24Q378.24-17.24 379.98-16.46Q381.72-15.68 382.72-14.32L382.72-14.32L382.72-31ZM377.08-2.80Q379.24-2.80 380.74-3.96Q382.24-5.12 382.68-7.08L382.68-7.08L382.68-10.20Q382.20-12 380.64-13.14Q379.08-14.28 377.08-14.28L377.08-14.28Q375.56-14.28 374.28-13.54Q373.00-12.80 372.24-11.50Q371.48-10.20 371.48-8.56L371.48-8.56Q371.48-6.96 372.24-5.64Q373.00-4.32 374.28-3.56Q375.56-2.80 377.08-2.80L377.08-2.80Z M402.24-2.80Q404.32-2.80 406.28-4.24L406.28-4.24L408.00-1.48Q406.68-0.60 405.14-0.10Q403.60 0.40 402.16 0.40L402.16 0.40Q399.40 0.40 397.34-0.74Q395.28-1.88 394.16-3.88Q393.04-5.88 393.04-8.40L393.04-8.40Q393.04-10.84 394.26-12.86Q395.48-14.88 397.60-16.06Q399.72-17.24 402.24-17.24L402.24-17.24Q405.48-17.24 407.66-15.34Q409.84-13.44 410.64-10.04L410.64-10.04L397.52-5.44Q398.24-4.20 399.46-3.50Q400.68-2.80 402.24-2.80L402.24-2.80ZM401.96-14.28Q399.68-14.28 398.20-12.68Q396.72-11.08 396.72-8.60L396.72-8.60Q396.72-8 396.76-7.68L396.76-7.68L406.40-11.24Q405.80-12.60 404.70-13.44Q403.60-14.28 401.96-14.28L401.96-14.28Z M420.48-12.64Q421.12-14 422.30-15.04Q423.48-16.08 424.80-16.64Q426.12-17.20 427.12-17.24L427.12-17.24L426.96-13.52Q425.16-13.60 423.70-12.80Q422.24-12 421.42-10.58Q420.60-9.16 420.60-7.56L420.60-7.56L420.60 0L416.88 0L416.88-16.56L420.20-16.56L420.48-12.64Z"/></g>
</svg>
</g><g opacity="1" transform="rotate(0 215.6139 624)">
<svg width="328.3764" height="120" x="215.6139" y="624" version="1.1" preserveAspectRatio="none" viewBox="1.44 -28.88 80.56 29.44">
  <g transform="matrix(1 0 0 1 0 0)" class="background"><path id="id-D6z1nYkh3" d="M16.96-28.88Q19.52-28.88 21.36-28.20Q23.20-27.52 24.72-26.28L24.72-26.28Q25.16-25.92 25.52-25.92L25.52-25.92Q25.92-25.92 26.16-26.50Q26.40-27.08 26.52-28.32L26.52-28.32L27.44-28.32Q27.28-25.48 27.28-18.32L27.28-18.32L26.36-18.32Q26.08-21.48 25.32-23.32Q24.56-25.16 22.68-26.44L22.68-26.44Q21.84-27 20.74-27.32Q19.64-27.64 18.56-27.64L18.56-27.64Q15.68-27.64 13.90-25.62Q12.12-23.60 11.38-20.52Q10.64-17.44 10.64-14.08L10.64-14.08Q10.64-7.12 12.34-3.68Q14.04-0.24 17.08-0.24L17.08-0.24Q18.32-0.24 19.04-0.72L19.04-0.72Q19.88-1.32 19.88-2.72L19.88-2.72L19.88-6.72Q19.88-8.72 19.56-9.66Q19.24-10.60 18.42-10.94Q17.60-11.28 15.84-11.36L15.84-11.36L15.84-12.16Q18.56-12.04 23.48-12.04L23.48-12.04Q27.60-12.04 29.64-12.16L29.64-12.16L29.64-11.36Q28.92-11.28 28.58-11.04Q28.24-10.80 28.12-10.12Q28-9.44 28-7.92L28-7.92L28 0L27.20 0Q27.16-0.84 26.84-1.56Q26.52-2.28 25.96-2.28L25.96-2.28Q25.12-2.28 23.24-1.36L23.24-1.36Q19.24 0.56 16.48 0.56L16.48 0.56Q9.04 0.56 5.24-3.20Q1.44-6.96 1.44-13.92L1.44-13.92Q1.44-18.32 3.42-21.72Q5.40-25.12 8.92-27Q12.44-28.88 16.96-28.88L16.96-28.88Z M46.80-28.88Q49.20-28.88 50.88-28.20Q52.56-27.52 54.16-26.28L54.16-26.28Q54.56-25.92 54.92-25.92L54.92-25.92Q55.72-25.92 55.96-28.32L55.96-28.32L56.88-28.32Q56.72-25.48 56.72-18.32L56.72-18.32L55.80-18.32Q55.52-21.52 54.76-23.36Q54-25.20 52.12-26.44L52.12-26.44Q50.24-27.64 48.40-27.64L48.40-27.64Q44.24-27.64 42.56-23.64Q40.88-19.64 40.88-14.08L40.88-14.08Q40.88-8.52 42.56-4.52Q44.24-0.52 48.40-0.52L48.40-0.52Q50.24-0.52 52.12-1.72L52.12-1.72Q54-2.88 54.76-4.84Q55.52-6.80 55.80-10.40L55.80-10.40L56.72-10.40Q56.72-2.92 56.88 0L56.88 0L55.96 0Q55.84-1.28 55.62-1.82Q55.40-2.36 55-2.36L55-2.36Q54.68-2.36 54.16-2.04L54.16-2.04Q52.36-0.76 50.72-0.10Q49.08 0.56 46.76 0.56L46.76 0.56Q42.24 0.56 38.84-1.16Q35.44-2.88 33.56-6.14Q31.68-9.40 31.68-13.92L31.68-13.92Q31.68-18.32 33.60-21.72Q35.52-25.12 38.96-27Q42.40-28.88 46.80-28.88L46.80-28.88Z M71-28.88Q73.28-28.88 74.70-28.46Q76.12-28.04 77.48-27.28L77.48-27.28Q77.92-27.04 78.26-26.88Q78.60-26.72 78.84-26.72L78.84-26.72Q79.20-26.72 79.40-27.14Q79.60-27.56 79.72-28.48L79.72-28.48L80.64-28.48Q80.44-25.60 80.44-18.72L80.44-18.72L79.52-18.72Q79.36-21 78.48-23.08Q77.60-25.16 76.08-26.48Q74.56-27.80 72.56-27.80L72.56-27.80Q70.72-27.80 69.60-26.82Q68.48-25.84 68.48-24.08L68.48-24.08Q68.48-22.72 69.08-21.72Q69.68-20.72 70.84-19.78Q72-18.84 74.64-17L74.64-17Q74.88-16.88 75.10-16.72Q75.32-16.56 75.52-16.40L75.52-16.40Q77.72-14.88 79.04-13.70Q80.36-12.52 81.18-10.96Q82-9.40 82-7.36L82-7.36Q82-4.76 80.54-2.98Q79.08-1.20 76.60-0.32Q74.12 0.56 71.12 0.56L71.12 0.56Q68.68 0.56 67.06 0.16Q65.44-0.24 64.04-0.92L64.04-0.92Q63.16-1.48 62.68-1.48L62.68-1.48Q62.32-1.48 62.12-1.06Q61.92-0.64 61.80 0.28L61.80 0.28L60.88 0.28Q61.04-2.44 61.04-11.32L61.04-11.32L61.96-11.32Q62.24-6.56 63.96-3.60Q65.68-0.64 69.24-0.64L69.24-0.64Q71.44-0.64 72.74-1.68Q74.04-2.72 74.04-4.56L74.04-4.56Q74.04-6.84 72.62-8.46Q71.20-10.08 68.20-12.08L68.20-12.08Q65.80-13.68 64.36-14.88Q62.92-16.08 62-17.66Q61.08-19.24 61.08-21.32L61.08-21.32Q61.08-23.84 62.44-25.54Q63.80-27.24 66.06-28.06Q68.32-28.88 71-28.88L71-28.88Z"/></g>
</svg>
</g></svg></svg>